<svg id="Layer_1" data-name="Layer 1" xmlns="http://www.w3.org/2000/svg" viewBox="0 0 439.37 206.98">
    <defs>
        <style>.cls-1{fill:#e4032d;}.cls-2{fill:#fff;}</style>
    </defs>
    <title>foody_logo</title>
    <path class="cls-1"
          d="M433.4,332.74A36.17,36.17,0,0,0,408,343.16a36.16,36.16,0,0,0-25.41-10.42,36.32,36.32,0,0,0-72.63,0c0,.68.16,1.32.2,2a57.85,57.85,0,0,0-25.62,14.09,57.64,57.64,0,0,0-79.88,0,57.8,57.8,0,0,0-29.16-15c0-.37.11-.72.11-1.09a36.16,36.16,0,0,0-57.9-29.05h-51a36.29,36.29,0,0,0-14.52,69.56v35.94a36.26,36.26,0,1,0,64.62,28.93,57.88,57.88,0,0,0,87.89,9.27,57.67,57.67,0,0,0,79.88,0,57.81,57.81,0,0,0,40,16.07,57.19,57.19,0,0,0,15.11-2.24,36.72,36.72,0,0,0-.59,5.87,36.14,36.14,0,0,0,59.76,27.52,57.75,57.75,0,0,0,71-56.57v-69A36.31,36.31,0,0,0,433.4,332.74Z"
          transform="translate(-30.34 -296.43)"/>
    <path class="cls-2"
          d="M164.7,354.53a36.31,36.31,0,0,0-36.32,36.31v14.52a36.32,36.32,0,0,0,72.63,0V390.84A36.31,36.31,0,0,0,164.7,354.53Zm14.52,50.83a14.53,14.53,0,1,1-29.05,0V390.84a14.53,14.53,0,1,1,29.05,0Z"
          transform="translate(-30.34 -296.43)"/>
    <path class="cls-2"
          d="M244.58,354.53a36.31,36.31,0,0,0-36.31,36.31v14.52a36.31,36.31,0,1,0,72.62,0V390.84A36.3,36.3,0,0,0,244.58,354.53Zm14.53,50.83a14.53,14.53,0,1,1-29.05,0V390.84a14.53,14.53,0,1,1,29.05,0Z"
          transform="translate(-30.34 -296.43)"/>
    <path class="cls-2"
          d="M360.78,419.89V332.74a14.53,14.53,0,0,0-29,0A7.26,7.26,0,0,1,339,340v17.59a36.26,36.26,0,0,0-50.84,33.25v14.52a36.31,36.31,0,0,0,36.32,36.31,35.87,35.87,0,0,0,18.22-5.07,14.32,14.32,0,0,0,10.83,5.07A14.52,14.52,0,0,0,368,427.15,7.26,7.26,0,0,1,360.78,419.89ZM339,405.36a14.53,14.53,0,1,1-29.05,0V390.84a14.53,14.53,0,1,1,29.05,0Z"
          transform="translate(-30.34 -296.43)"/>
    <path class="cls-2"
          d="M399.51,453.54a21.71,21.71,0,0,0-38.73,13.55,14.53,14.53,0,1,0,29.05,0A14.39,14.39,0,0,1,399.51,453.54Z"
          transform="translate(-30.34 -296.43)"/>
    <path class="cls-2"
          d="M433.4,354.53a14.52,14.52,0,0,0-14.52,14.52,7.26,7.26,0,0,1,7.26,7.26v29.05a14.53,14.53,0,1,1-29.05,0V369.05a14.53,14.53,0,0,0-29,0,7.26,7.26,0,0,1,7.26,7.26v29.05a36.31,36.31,0,0,0,36.31,36.31,34.93,34.93,0,0,0,14-3.11,11.83,11.83,0,0,1,.51,3.11,14.52,14.52,0,0,1-14.53,14.53,14.52,14.52,0,0,0-14.52,14.52c0,.23.12.42.13.64A36.27,36.27,0,0,0,447.93,438v-69A14.53,14.53,0,0,0,433.4,354.53Z"
          transform="translate(-30.34 -296.43)"/>
    <path class="cls-2"
          d="M95.7,347.26h43.58a14.52,14.52,0,1,0,0-29,7.26,7.26,0,0,1-7.26,7.26H66.65a14.53,14.53,0,0,0,0,29,7.28,7.28,0,0,1,7.27-7.27v76.26a7.27,7.27,0,0,1-7.27,7.26,14.53,14.53,0,1,0,29.05,0V390.84h18.16a7.26,7.26,0,0,0,7.26-7.26V369.05H95.7Z"
          transform="translate(-30.34 -296.43)"/>
</svg>